<?xml version="1.0" encoding="utf-8"?>
<!-- Generator: Adobe Illustrator 18.0.0, SVG Export Plug-In . SVG Version: 6.00 Build 0)  -->
<svg version="1.2" baseProfile="tiny" xmlns="http://www.w3.org/2000/svg" xmlns:xlink="http://www.w3.org/1999/xlink" x="0px"
	 y="0px" viewBox="0 0 960 560" xml:space="preserve">
<g id="CoolGreyBG" display="none">
</g>
<g id="DarkGreyBG" display="none">
	<rect x="-6.7" y="-10.5" display="inline" fill="#3D464D" width="966.7" height="570.5"/>
</g>
<g id="BlueBG" display="none">
	<rect x="-0.4" y="-1" display="inline" fill="#007EE5" stroke="#FFFFFF" stroke-miterlimit="10" width="960.8" height="565.7"/>
</g>
<g id="LightBluBG" display="none">
	<rect x="-0.4" y="-6.7" display="inline" fill="#6FB3E2" stroke="#FFFFFF" stroke-miterlimit="10" width="960.8" height="571.4"/>
</g>
<g id="BlackBG" display="none">
	<rect x="-5.1" display="inline" stroke="#FFFFFF" stroke-miterlimit="10" width="962.8" height="557.9"/>
</g>
<g id="Standard_1_" display="none">
	<g id="DropKey.io_2_" display="inline">
		<g display="none">
			<path display="inline" d="M345.5,294.1c0,3.3-0.6,6.5-1.8,9.5c-1.2,3-3,5.7-5.4,8s-5.5,4.1-9.2,5.5c-3.7,1.3-8.1,2-13.1,2h-31.1
				v-92.7h31.1c5,0,9.4,0.7,13.1,2c3.7,1.3,6.8,3.1,9.2,5.4c2.4,2.3,4.2,4.9,5.4,7.9c1.2,3,1.8,6.1,1.8,9.5V294.1z M306.4,302.6h7.9
				c2.9,0,5.2-0.8,7-2.4s2.6-3.6,2.6-6v-43.1c0-2.4-0.9-4.3-2.6-6c-1.7-1.6-4-2.4-7-2.4h-7.9V302.6z"/>
		</g>
		<g>
			<path d="M396.9,252l-8.4,16.6h-9.9c-1.2,0-2.4,0.1-3.7,0.3c-1.2,0.2-2.3,0.6-3.2,1.2c-0.9,0.6-1.6,1.5-2.2,2.6
				c-0.6,1.1-0.9,2.6-0.9,4.5v42h-18.4v-42c0-3.4,0.6-6.6,1.8-9.6c1.2-3,3.1-5.7,5.6-7.9c2.5-2.3,5.7-4.1,9.5-5.4
				c3.8-1.3,8.3-2.1,13.5-2.1h1H396.9z"/>
		</g>
		<g>
			<path d="M421.6,250.1c9.8,0,16.7,2.2,20.9,6.5c4.1,4.4,6.2,10.7,6.2,19.1v18.2c0,3.8-0.5,7.3-1.5,10.6c-1,3.2-2.5,6-4.7,8.4
				c-2.2,2.4-4.9,4.2-8.4,5.6s-7.6,2-12.6,2c-4.6,0-8.6-0.7-12-2c-3.4-1.3-6.2-3.2-8.4-5.6c-2.2-2.4-3.8-5.1-4.9-8.4
				c-1.1-3.2-1.6-6.7-1.6-10.6v-18.7c0-3.7,0.5-7.2,1.6-10.2c1.1-3.1,2.7-5.7,4.9-7.9c2.2-2.2,5-3.9,8.4-5.1
				C413,250.7,417,250.1,421.6,250.1z M421.6,305.1c3.3,0,5.5-1.1,6.8-3.2c1.3-2.1,2-4.7,2-7.8V275c0-3.2-0.7-5.7-2.2-7.4
				c-1.5-1.8-3.7-2.7-6.6-2.7c-3.3,0-5.6,1.1-6.9,3.2c-1.3,2.2-1.9,4.7-1.9,7.7v18.4c0,3,0.6,5.6,1.9,7.7
				C416,304.1,418.3,305.1,421.6,305.1z"/>
		</g>
		<g>
			<path d="M509.2,294c0,3.8-0.5,7.3-1.6,10.6c-1.1,3.2-2.8,6-5,8.4c-2.2,2.4-5.1,4.2-8.5,5.6s-7.4,2-12.1,2c-3.3,0-6.2-0.4-8.9-1.1
				v26.5h-18.3v-89.4c3.3-2.4,7.1-4,11.3-4.9c4.2-0.9,8.5-1.4,12.8-1.4c5.1,0,9.6,0.7,13.4,2c3.8,1.3,6.9,3.1,9.4,5.4
				c2.5,2.3,4.4,4.9,5.6,7.9c1.3,3,1.9,6.1,1.9,9.5V294z M490.9,275.1c0-4-1-6.7-3-8.2c-2-1.5-4.6-2.3-7.6-2.3c-2.2,0-4.6,0.3-7.2,1
				v29.3c0,3.3,0.7,5.8,2.1,7.5c1.4,1.7,3.7,2.5,6.8,2.5c3.4,0,5.7-0.9,7-2.8c1.2-1.9,1.9-4.6,2-8.1V275.1z"/>
		</g>
		<g>
			<path d="M587.5,319.1h-23.2L541,279.3l-5.7,6.8v33.1h-21.6v-92.7h21.6v34.9l27.8-34.9h22.2l-31.7,38.1L587.5,319.1z"/>
		</g>
		<g>
			<path d="M636.1,290.2h-35.7c0,1.7,0,3.6,0.1,5.6c0.1,2,0.4,3.8,1,5.6c0.6,1.7,1.6,3.1,2.9,4.3c1.3,1.1,3.2,1.7,5.6,1.7
				c1.7,0,3.1-0.2,4.1-0.7c1.1-0.5,1.9-1.1,2.6-1.8c0.6-0.7,1.1-1.4,1.5-2.2c0.3-0.8,0.6-1.5,0.9-2.1h16.8c-0.4,3-1.2,5.7-2.3,8.2
				c-1.1,2.4-2.7,4.5-4.8,6.2c-2,1.7-4.6,3-7.7,3.9c-3.1,0.9-6.8,1.3-11.1,1.3c-4.9,0-9-0.9-12.5-2.6c-3.5-1.7-6.2-3.9-8.4-6.7
				c-2.1-2.8-3.7-5.9-4.6-9.5c-1-3.6-1.5-7.3-1.5-11.1v-14.9c0-3.7,0.5-7.2,1.6-10.2c1.1-3.1,2.7-5.8,4.9-8c2.2-2.2,5-4,8.4-5.2
				c3.4-1.2,7.4-1.8,12-1.8c5.1,0,9.4,0.8,12.8,2.4c3.4,1.6,6.1,3.7,8.1,6.3c2,2.6,3.4,5.7,4.1,9.1c0.8,3.5,1.2,7.1,1.2,10.9V290.2z
				 M619.7,277.3c0-1.5-0.1-3.2-0.2-4.8c-0.1-1.7-0.5-3.2-1.1-4.6c-0.6-1.4-1.6-2.6-2.9-3.5c-1.3-0.9-3.2-1.4-5.6-1.4
				c-3.4,0-5.9,1-7.4,3.1c-1.5,2.1-2.3,5.2-2.3,9.3v3.4h19.4V277.3z"/>
		</g>
		<g>
			<path d="M699.3,252l-22.6,66.1c-1.4,3.8-2.8,7.4-4.1,10.9s-3.1,6.4-5.1,9c-2,2.6-4.5,4.6-7.4,6c-2.9,1.5-6.6,2.2-11.1,2.2v-14.9
				c1.5,0,2.8-0.3,3.9-1c1.1-0.7,2-1.6,2.7-2.8c0.8-1.2,1.4-2.5,2-4c0.6-1.5,1.2-2.9,1.8-4.4L636.4,252h19.3l12,44l1.3-3.9
				l10.9-40.1H699.3z"/>
		</g>
		<g>
			<path fill="#007EE5" d="M716.3,318.6h-21.6v-16.1h21.6V318.6z"/>
		</g>
		<g>
			<path fill="#007EE5" d="M733.8,244.1c-2.7,0-5-1-6.8-2.9c-1.9-1.9-2.8-4.2-2.8-6.8c0-2.7,0.9-5,2.8-6.9c1.9-1.9,4.1-2.9,6.8-2.9
				c2.7,0,5,1,6.9,2.9c1.9,1.9,2.9,4.2,2.9,6.9c0,2.6-1,4.9-2.9,6.8C738.8,243.1,736.5,244.1,733.8,244.1z M724.8,251.5h18.2v67.1
				h-18.2V251.5z"/>
		</g>
		<g>
			<path fill="#007EE5" d="M776.9,249.6c9.8,0,16.7,2.2,20.9,6.5c4.1,4.4,6.2,10.7,6.2,19.1v18.2c0,3.8-0.5,7.3-1.5,10.6
				c-1,3.2-2.5,6-4.7,8.4c-2.2,2.4-4.9,4.2-8.4,5.6s-7.6,2-12.6,2c-4.6,0-8.6-0.7-12-2c-3.4-1.3-6.2-3.2-8.4-5.6
				c-2.2-2.4-3.8-5.1-4.9-8.4c-1.1-3.2-1.6-6.7-1.6-10.6v-18.7c0-3.7,0.5-7.2,1.6-10.2c1.1-3.1,2.7-5.7,4.9-7.9
				c2.2-2.2,5-3.9,8.4-5.1C768.2,250.2,772.2,249.6,776.9,249.6z M776.9,304.6c3.3,0,5.5-1.1,6.8-3.2c1.3-2.1,2-4.7,2-7.8v-19.2
				c0-3.2-0.7-5.7-2.2-7.4c-1.5-1.8-3.7-2.7-6.6-2.7c-3.3,0-5.6,1.1-6.9,3.2c-1.3,2.2-1.9,4.7-1.9,7.7v18.4c0,3,0.6,5.6,1.9,7.7
				C771.2,303.6,773.5,304.6,776.9,304.6z"/>
		</g>
	</g>
	<g id="Finished_Logo_4_" display="inline">
		<g>
			<path d="M241.4,288.4c0-7.8,2.2-15.1,6-21.3l5.4,7.1l6.8-16.2l7.5-17.8l-36.5,4.6l4.2,5.6c-8.4,10.4-13.4,23.6-13.4,38
				c0,15.6,5.9,29.9,15.6,40.7l7.1-6.1l8-7C245.5,308.7,241.4,299,241.4,288.4z"/>
			<path d="M282.4,227.5c-3.1,0-6.1,0.2-9.1,0.7l0,9.4c0,0.2,0,0.3,0,0.5v6.2v4.2v38.7c0,5.3,4.5,9.6,10,9.6s10-4.3,10-9.6v-38.3
				c17.3,4.8,30.1,20.7,30.1,39.5c0,22.4-18.1,40.7-40.4,40.9l3.2-7.5l-17.4,2.2l-19.2,2.4l22.2,29.4l2.9-6.9
				c2.5,0.3,5.1,0.5,7.8,0.5c33.6,0,61-27.3,61-61C343.3,254.8,316,227.5,282.4,227.5z"/>
		</g>
	</g>
	<line display="inline" fill="none" x1="535.3" y1="226.4" x2="267.2" y2="226.4"/>
</g>
<g id="DGrey_x26_White" display="none">
	<g id="DropKey.io_1_" display="inline">
		<g display="none">
			<path display="inline" d="M346.2,294.8c0,3.3-0.6,6.5-1.8,9.5c-1.2,3-3,5.7-5.4,8s-5.5,4.1-9.2,5.5c-3.7,1.3-8.1,2-13.1,2h-31.1
				v-92.7h31.1c5,0,9.4,0.7,13.1,2c3.7,1.3,6.8,3.1,9.2,5.4c2.4,2.3,4.2,4.9,5.4,7.9c1.2,3,1.8,6.1,1.8,9.5V294.8z M307.2,303.2h7.9
				c2.9,0,5.2-0.8,7-2.4s2.6-3.6,2.6-6v-43.1c0-2.4-0.9-4.3-2.6-6c-1.7-1.6-4-2.4-7-2.4h-7.9V303.2z"/>
		</g>
		<g>
			<path fill="#3D464D" d="M397.7,252.7l-8.4,16.6h-9.9c-1.2,0-2.4,0.1-3.7,0.3c-1.2,0.2-2.3,0.6-3.2,1.2c-0.9,0.6-1.6,1.5-2.2,2.6
				c-0.6,1.1-0.9,2.6-0.9,4.5v42h-18.4v-42c0-3.4,0.6-6.6,1.8-9.6c1.2-3,3.1-5.7,5.6-7.9c2.5-2.3,5.7-4.1,9.5-5.4
				c3.8-1.3,8.3-2.1,13.5-2.1h1H397.7z"/>
		</g>
		<g>
			<path fill="#3D464D" d="M422.4,250.7c9.8,0,16.7,2.2,20.9,6.5c4.1,4.4,6.2,10.7,6.2,19.1v18.2c0,3.8-0.5,7.3-1.5,10.6
				c-1,3.2-2.5,6-4.7,8.4c-2.2,2.4-4.9,4.2-8.4,5.6s-7.6,2-12.6,2c-4.6,0-8.6-0.7-12-2c-3.4-1.3-6.2-3.2-8.4-5.6
				c-2.2-2.4-3.8-5.1-4.9-8.4c-1.1-3.2-1.6-6.7-1.6-10.6v-18.7c0-3.7,0.5-7.2,1.6-10.2c1.1-3.1,2.7-5.7,4.9-7.9
				c2.2-2.2,5-3.9,8.4-5.1C413.7,251.3,417.7,250.7,422.4,250.7z M422.4,305.7c3.3,0,5.5-1.1,6.8-3.2c1.3-2.1,2-4.7,2-7.8v-19.2
				c0-3.2-0.7-5.7-2.2-7.4c-1.5-1.8-3.7-2.7-6.6-2.7c-3.3,0-5.6,1.1-6.9,3.2c-1.3,2.2-1.9,4.7-1.9,7.7v18.4c0,3,0.6,5.6,1.9,7.7
				C416.7,304.7,419,305.7,422.4,305.7z"/>
		</g>
		<g>
			<path fill="#3D464D" d="M509.9,294.6c0,3.8-0.5,7.3-1.6,10.6c-1.1,3.2-2.8,6-5,8.4c-2.2,2.4-5.1,4.2-8.5,5.6s-7.4,2-12.1,2
				c-3.3,0-6.2-0.4-8.9-1.1v26.5h-18.3v-89.4c3.3-2.4,7.1-4,11.3-4.9c4.2-0.9,8.5-1.4,12.8-1.4c5.1,0,9.6,0.7,13.4,2
				c3.8,1.3,6.9,3.1,9.4,5.4c2.5,2.3,4.4,4.9,5.6,7.9c1.3,3,1.9,6.1,1.9,9.5V294.6z M491.6,275.7c0-4-1-6.7-3-8.2
				c-2-1.5-4.6-2.3-7.6-2.3c-2.2,0-4.6,0.3-7.2,1v29.3c0,3.3,0.7,5.8,2.1,7.5c1.4,1.7,3.7,2.5,6.8,2.5c3.4,0,5.7-0.9,7-2.8
				c1.2-1.9,1.9-4.6,2-8.1V275.7z"/>
		</g>
		<g>
			<path fill="#3D464D" d="M588.2,319.8H565l-23.3-39.9l-5.7,6.8v33.1h-21.6v-92.7H536v34.9l27.8-34.9H586l-31.7,38.1L588.2,319.8z"
				/>
		</g>
		<g>
			<path fill="#3D464D" d="M636.8,290.9h-35.7c0,1.7,0,3.6,0.1,5.6c0.1,2,0.4,3.8,1,5.6c0.6,1.7,1.6,3.1,2.9,4.3
				c1.3,1.1,3.2,1.7,5.6,1.7c1.7,0,3.1-0.2,4.1-0.7c1.1-0.5,1.9-1.1,2.6-1.8c0.6-0.7,1.1-1.4,1.5-2.2c0.3-0.8,0.6-1.5,0.9-2.1h16.8
				c-0.4,3-1.2,5.7-2.3,8.2c-1.1,2.4-2.7,4.5-4.8,6.2c-2,1.7-4.6,3-7.7,3.9c-3.1,0.9-6.8,1.3-11.1,1.3c-4.9,0-9-0.9-12.5-2.6
				c-3.5-1.7-6.2-3.9-8.4-6.7c-2.1-2.8-3.7-5.9-4.6-9.5c-1-3.6-1.5-7.3-1.5-11.1V276c0-3.7,0.5-7.2,1.6-10.2c1.1-3.1,2.7-5.8,4.9-8
				c2.2-2.2,5-4,8.4-5.2c3.4-1.2,7.4-1.8,12-1.8c5.1,0,9.4,0.8,12.8,2.4c3.4,1.6,6.1,3.7,8.1,6.3c2,2.6,3.4,5.7,4.1,9.1
				c0.8,3.5,1.2,7.1,1.2,10.9V290.9z M620.5,277.9c0-1.5-0.1-3.2-0.2-4.8c-0.1-1.7-0.5-3.2-1.1-4.6c-0.6-1.4-1.6-2.6-2.9-3.5
				c-1.3-0.9-3.2-1.4-5.6-1.4c-3.4,0-5.9,1-7.4,3.1c-1.5,2.1-2.3,5.2-2.3,9.3v3.4h19.4V277.9z"/>
		</g>
		<g>
			<path fill="#3D464D" d="M700,252.7l-22.6,66.1c-1.4,3.8-2.8,7.4-4.1,10.9s-3.1,6.4-5.1,9c-2,2.6-4.5,4.6-7.4,6
				c-2.9,1.5-6.6,2.2-11.1,2.2V332c1.5,0,2.8-0.3,3.9-1c1.1-0.7,2-1.6,2.7-2.8c0.8-1.2,1.4-2.5,2-4c0.6-1.5,1.2-2.9,1.8-4.4
				l-23.1-67.1h19.3l12,44l1.3-3.9l10.9-40.1H700z"/>
		</g>
		<g>
			<path fill="#FFFFFF" d="M717.1,319.3h-21.6v-16.1h21.6V319.3z"/>
		</g>
		<g>
			<path fill="#FFFFFF" d="M734.5,244.7c-2.7,0-5-1-6.8-2.9c-1.9-1.9-2.8-4.2-2.8-6.8c0-2.7,0.9-5,2.8-6.9c1.9-1.9,4.1-2.9,6.8-2.9
				c2.7,0,5,1,6.9,2.9c1.9,1.9,2.9,4.2,2.9,6.9c0,2.6-1,4.9-2.9,6.8C739.5,243.8,737.2,244.7,734.5,244.7z M725.5,252.2h18.2v67.1
				h-18.2V252.2z"/>
		</g>
		<g>
			<path fill="#FFFFFF" d="M777.6,250.2c9.8,0,16.7,2.2,20.9,6.5c4.1,4.4,6.2,10.7,6.2,19.1V294c0,3.8-0.5,7.3-1.5,10.6
				c-1,3.2-2.5,6-4.7,8.4c-2.2,2.4-4.9,4.2-8.4,5.6s-7.6,2-12.6,2c-4.6,0-8.6-0.7-12-2c-3.4-1.3-6.2-3.2-8.4-5.6
				c-2.2-2.4-3.8-5.1-4.9-8.4c-1.1-3.2-1.6-6.7-1.6-10.6v-18.7c0-3.7,0.5-7.2,1.6-10.2c1.1-3.1,2.7-5.7,4.9-7.9
				c2.2-2.2,5-3.9,8.4-5.1C769,250.8,773,250.2,777.6,250.2z M777.6,305.2c3.3,0,5.5-1.1,6.8-3.2c1.3-2.1,2-4.7,2-7.8v-19.2
				c0-3.2-0.7-5.7-2.2-7.4c-1.5-1.8-3.7-2.7-6.6-2.7c-3.3,0-5.6,1.1-6.9,3.2c-1.3,2.2-1.9,4.7-1.9,7.7v18.4c0,3,0.6,5.6,1.9,7.7
				C772,304.2,774.3,305.2,777.6,305.2z"/>
		</g>
	</g>
	<g id="Finished_Logo_3_" display="inline">
		<g>
			<path fill="#3D464D" d="M242.2,289c0-7.8,2.2-15.1,6-21.3l5.4,7.1l6.8-16.2l7.5-17.8l-36.5,4.6l4.2,5.6
				c-8.4,10.4-13.4,23.6-13.4,38c0,15.6,5.9,29.9,15.6,40.7l7.1-6.1l8-7C246.2,309.3,242.2,299.6,242.2,289z"/>
			<path fill="#3D464D" d="M283.1,228.1c-3.1,0-6.1,0.2-9.1,0.7l0,9.4c0,0.2,0,0.3,0,0.5v6.2v4.2v38.7c0,5.3,4.5,9.6,10,9.6
				s10-4.3,10-9.6v-38.3c17.3,4.8,30.1,20.7,30.1,39.5c0,22.4-18.1,40.7-40.4,40.9l3.2-7.5l-17.4,2.2l-19.2,2.4l22.2,29.4l2.9-6.9
				c2.5,0.3,5.1,0.5,7.8,0.5c33.6,0,61-27.3,61-61C344.1,255.4,316.8,228.1,283.1,228.1z"/>
		</g>
	</g>
	<line display="inline" fill="none" x1="536" y1="227.1" x2="267.9" y2="227.1"/>
</g>
<g id="Grey_x26_LGrey">
	<g id="DropKey.io_3_">
		<g display="none">
			<path display="inline" d="M347.2,296.1c0,3.3-0.6,6.5-1.8,9.5c-1.2,3-3,5.7-5.4,8s-5.5,4.1-9.2,5.5c-3.7,1.3-8.1,2-13.1,2h-31.1
				v-92.7h31.1c5,0,9.4,0.7,13.1,2c3.7,1.3,6.8,3.1,9.2,5.4c2.4,2.3,4.2,4.9,5.4,7.9c1.2,3,1.8,6.1,1.8,9.5V296.1z M308.1,304.6h7.9
				c2.9,0,5.2-0.8,7-2.4s2.6-3.6,2.6-6v-43.1c0-2.4-0.9-4.3-2.6-6c-1.7-1.6-4-2.4-7-2.4h-7.9V304.6z"/>
		</g>
		<g>
			<path fill="#7B8994" d="M398.7,254l-8.4,16.6h-9.9c-1.2,0-2.4,0.1-3.7,0.3c-1.2,0.2-2.3,0.6-3.2,1.2c-0.9,0.6-1.6,1.5-2.2,2.6
				c-0.6,1.1-0.9,2.6-0.9,4.5v42h-18.4v-42c0-3.4,0.6-6.6,1.8-9.6c1.2-3,3.1-5.7,5.6-7.9c2.5-2.3,5.7-4.1,9.5-5.4
				c3.8-1.3,8.3-2.1,13.5-2.1h1H398.7z"/>
		</g>
		<g>
			<path fill="#7B8994" d="M423.4,252.1c9.8,0,16.7,2.2,20.9,6.5c4.1,4.4,6.2,10.7,6.2,19.1v18.2c0,3.8-0.5,7.3-1.5,10.6
				c-1,3.2-2.5,6-4.7,8.4c-2.2,2.4-4.9,4.2-8.4,5.6s-7.6,2-12.6,2c-4.6,0-8.6-0.7-12-2c-3.4-1.3-6.2-3.2-8.4-5.6
				c-2.2-2.4-3.8-5.1-4.9-8.4c-1.1-3.2-1.6-6.7-1.6-10.6v-18.7c0-3.7,0.5-7.2,1.6-10.2c1.1-3.1,2.7-5.7,4.9-7.9
				c2.2-2.2,5-3.9,8.4-5.1C414.7,252.7,418.7,252.1,423.4,252.1z M423.4,307.1c3.3,0,5.5-1.1,6.8-3.2c1.3-2.1,2-4.7,2-7.8V277
				c0-3.2-0.7-5.7-2.2-7.4c-1.5-1.8-3.7-2.7-6.6-2.7c-3.3,0-5.6,1.1-6.9,3.2c-1.3,2.2-1.9,4.7-1.9,7.7v18.4c0,3,0.6,5.6,1.9,7.7
				C417.7,306.1,420,307.1,423.4,307.1z"/>
		</g>
		<g>
			<path fill="#7B8994" d="M510.9,296c0,3.8-0.5,7.3-1.6,10.6c-1.1,3.2-2.8,6-5,8.4c-2.2,2.4-5.1,4.2-8.5,5.6s-7.4,2-12.1,2
				c-3.3,0-6.2-0.4-8.9-1.1v26.5h-18.3v-89.4c3.3-2.4,7.1-4,11.3-4.9c4.2-0.9,8.5-1.4,12.8-1.4c5.1,0,9.6,0.7,13.4,2
				c3.8,1.3,6.9,3.1,9.4,5.4c2.5,2.3,4.4,4.9,5.6,7.9c1.3,3,1.9,6.1,1.9,9.5V296z M492.6,277.1c0-4-1-6.7-3-8.2
				c-2-1.5-4.6-2.3-7.6-2.3c-2.2,0-4.6,0.3-7.2,1v29.3c0,3.3,0.7,5.8,2.1,7.5c1.4,1.7,3.7,2.5,6.8,2.5c3.4,0,5.7-0.9,7-2.8
				c1.2-1.9,1.9-4.6,2-8.1V277.1z"/>
		</g>
		<g>
			<path fill="#7B8994" d="M589.2,321.1H566l-23.3-39.9l-5.7,6.8v33.1h-21.6v-92.7H537v34.9l27.8-34.9H587l-31.7,38.1L589.2,321.1z"
				/>
		</g>
		<g>
			<path fill="#7B8994" d="M637.8,292.2H602c0,1.7,0,3.6,0.1,5.6c0.1,2,0.4,3.8,1,5.6c0.6,1.7,1.6,3.1,2.9,4.3
				c1.3,1.1,3.2,1.7,5.6,1.7c1.7,0,3.1-0.2,4.1-0.7c1.1-0.5,1.9-1.1,2.6-1.8c0.6-0.7,1.1-1.4,1.5-2.2c0.3-0.8,0.6-1.5,0.9-2.1h16.8
				c-0.4,3-1.2,5.7-2.3,8.2c-1.1,2.4-2.7,4.5-4.8,6.2c-2,1.7-4.6,3-7.7,3.9c-3.1,0.9-6.8,1.3-11.1,1.3c-4.9,0-9-0.9-12.5-2.6
				c-3.5-1.7-6.2-3.9-8.4-6.7c-2.1-2.8-3.7-5.9-4.6-9.5c-1-3.6-1.5-7.3-1.5-11.1v-14.9c0-3.7,0.5-7.2,1.6-10.2
				c1.1-3.1,2.7-5.8,4.9-8c2.2-2.2,5-4,8.4-5.2c3.4-1.2,7.4-1.8,12-1.8c5.1,0,9.4,0.8,12.8,2.4c3.4,1.6,6.1,3.7,8.1,6.3
				c2,2.6,3.4,5.7,4.1,9.1c0.8,3.5,1.2,7.1,1.2,10.9V292.2z M621.4,279.3c0-1.5-0.1-3.2-0.2-4.8c-0.1-1.7-0.5-3.2-1.1-4.6
				c-0.6-1.4-1.6-2.6-2.9-3.5c-1.3-0.9-3.2-1.4-5.6-1.4c-3.4,0-5.9,1-7.4,3.1c-1.5,2.1-2.3,5.2-2.3,9.3v3.4h19.4V279.3z"/>
		</g>
		<g>
			<path fill="#7B8994" d="M701,254l-22.6,66.1c-1.4,3.8-2.8,7.4-4.1,10.9s-3.1,6.4-5.1,9c-2,2.6-4.5,4.6-7.4,6
				c-2.9,1.5-6.6,2.2-11.1,2.2v-14.9c1.5,0,2.8-0.3,3.9-1c1.1-0.7,2-1.6,2.7-2.8c0.8-1.2,1.4-2.5,2-4c0.6-1.5,1.2-2.9,1.8-4.4
				L638.1,254h19.3l12,44l1.3-3.9l10.9-40.1H701z"/>
		</g>
		<g>
			<path fill="#FFFFFF" d="M718.1,320.6h-21.6v-16.1h21.6V320.6z"/>
		</g>
		<g>
			<path fill="#FFFFFF" d="M735.5,246.1c-2.7,0-5-1-6.8-2.9c-1.9-1.9-2.8-4.2-2.8-6.8c0-2.7,0.9-5,2.8-6.9c1.9-1.9,4.1-2.9,6.8-2.9
				c2.7,0,5,1,6.9,2.9c1.9,1.9,2.9,4.2,2.9,6.9c0,2.6-1,4.9-2.9,6.8C740.5,245.1,738.2,246.1,735.5,246.1z M726.5,253.5h18.2v67.1
				h-18.2V253.5z"/>
		</g>
		<g>
			<path fill="#FFFFFF" d="M778.6,251.6c9.8,0,16.7,2.2,20.9,6.5c4.1,4.4,6.2,10.7,6.2,19.1v18.2c0,3.8-0.5,7.3-1.5,10.6
				c-1,3.2-2.5,6-4.7,8.4c-2.2,2.4-4.9,4.2-8.4,5.6s-7.6,2-12.6,2c-4.6,0-8.6-0.7-12-2c-3.4-1.3-6.2-3.2-8.4-5.6
				c-2.2-2.4-3.8-5.1-4.9-8.4c-1.1-3.2-1.6-6.7-1.6-10.6v-18.7c0-3.7,0.5-7.2,1.6-10.2c1.1-3.1,2.7-5.7,4.9-7.9
				c2.2-2.2,5-3.9,8.4-5.1C769.9,252.2,773.9,251.6,778.6,251.6z M778.6,306.6c3.3,0,5.5-1.1,6.8-3.2c1.3-2.1,2-4.7,2-7.8v-19.2
				c0-3.2-0.7-5.7-2.2-7.4c-1.5-1.8-3.7-2.7-6.6-2.7c-3.3,0-5.6,1.1-6.9,3.2c-1.3,2.2-1.9,4.7-1.9,7.7v18.4c0,3,0.6,5.6,1.9,7.7
				C772.9,305.6,775.2,306.6,778.6,306.6z"/>
		</g>
	</g>
	<g id="Finished_Logo_5_">
		<g>
			<path fill="#7B8994" d="M243.2,290.4c0-7.8,2.2-15.1,6-21.3l5.4,7.1l6.8-16.2l7.5-17.8l-36.5,4.6l4.2,5.6
				c-8.4,10.4-13.4,23.6-13.4,38c0,15.6,5.9,29.9,15.6,40.7l7.1-6.1l8-7C247.2,310.7,243.2,301,243.2,290.4z"/>
			<path fill="#7B8994" d="M284.1,229.5c-3.1,0-6.1,0.2-9.1,0.7l0,9.4c0,0.2,0,0.3,0,0.5v6.2v4.2v38.7c0,5.3,4.5,9.6,10,9.6
				s10-4.3,10-9.6v-38.3c17.3,4.8,30.1,20.7,30.1,39.5c0,22.4-18.1,40.7-40.4,40.9l3.2-7.5l-17.4,2.2l-19.2,2.4l22.2,29.4l2.9-6.9
				c2.5,0.3,5.1,0.5,7.8,0.5c33.6,0,61-27.3,61-61C345.1,256.8,317.7,229.5,284.1,229.5z"/>
		</g>
	</g>
	<line fill="none" x1="537" y1="228.4" x2="268.9" y2="228.4"/>
</g>
<g id="Wht_x26_LGrey" display="none">
	<g id="Pieces_of_Logo">
		<polygon display="inline" fill="#FF00FF" points="84.4,230.4 120.9,225.9 113.4,243.6 106.6,259.8 95.1,244.6 		"/>
		<path display="inline" fill="#FF00FF" d="M137,282.4c-5.5,0-10-4.3-10-9.6v-49.2c0-5.3,4.5-9.6,10-9.6s10,4.3,10,9.6v49.2
			C147,278.1,142.5,282.4,137,282.4z"/>
		<g display="inline">
			<path fill="#FF00FF" d="M97.9,308.5l8-7c-6.6-7.3-10.7-17-10.7-27.6c0-13.1,6.2-24.9,15.9-32.4l-18.2-10.5
				c-10.9,11-17.7,26.2-17.7,42.9c0,15.6,5.9,29.9,15.6,40.7L97.9,308.5z"/>
			<path fill="#FF00FF" d="M136.1,213c-3.1,0-6.1,0.2-9.1,0.7l-0.1,16.2v4.2c3-0.7,6-1,9.1-1c22.6,0,41,18.4,41,41s-18.4,41-40.9,41
				c-6.2,0-12.1-1.4-17.3-3.9l6.7,22.9c3.5,0.6,7,0.9,10.6,0.9c33.6,0,61-27.3,61-61C197.1,240.4,169.8,213,136.1,213z"/>
		</g>
		<polygon display="inline" fill="#FF00FF" points="125.5,341.3 103.3,312 122.4,309.6 139.8,307.4 132.4,325 		"/>
		<circle display="inline" fill="none" cx="136.1" cy="274" r="50.4"/>
		<polyline display="inline" fill="none" points="69,311 137.1,311 194.8,311 207,311 		"/>
		<circle display="inline" fill="none" cx="151.1" cy="282" r="50.4"/>
	</g>
	<g id="Finished_Logo_1_">
		<g display="inline">
			<path d="M168.2,284c0-7.8,2.2-15.1,6-21.3l5.4,7.1l6.8-16.2l7.5-17.8l-36.5,4.6l4.2,5.6c-8.4,10.4-13.4,23.6-13.4,38
				c0,15.6,5.9,29.9,15.6,40.7l7.1-6.1l8-7C172.2,304.3,168.2,294.6,168.2,284z"/>
			<path d="M209.1,223c-3.1,0-6.1,0.2-9.1,0.7l0,9.4c0,0.2,0,0.3,0,0.5v6.2v4.2v38.7c0,5.3,4.5,9.6,10,9.6s10-4.3,10-9.6v-38.3
				c17.3,4.8,30.1,20.7,30.1,39.5c0,22.4-18.1,40.7-40.4,40.9l3.2-7.5l-17.4,2.2l-19.2,2.4l22.2,29.4l2.9-6.9
				c2.5,0.3,5.1,0.5,7.8,0.5c33.6,0,61-27.3,61-61C270.1,250.4,242.8,223,209.1,223z"/>
		</g>
	</g>
	<g id="DropKey.io" display="inline">
		<g display="none">
			<path display="inline" d="M346.2,294.8c0,3.3-0.6,6.5-1.8,9.5c-1.2,3-3,5.7-5.4,8s-5.5,4.1-9.2,5.5c-3.7,1.3-8.1,2-13.1,2h-31.1
				v-92.7h31.1c5,0,9.4,0.7,13.1,2c3.7,1.3,6.8,3.1,9.2,5.4c2.4,2.3,4.2,4.9,5.4,7.9c1.2,3,1.8,6.1,1.8,9.5V294.8z M307.2,303.2h7.9
				c2.9,0,5.2-0.8,7-2.4s2.6-3.6,2.6-6v-43.1c0-2.4-0.9-4.3-2.6-6c-1.7-1.6-4-2.4-7-2.4h-7.9V303.2z"/>
		</g>
		<g>
			<path fill="#FFFFFF" d="M397.7,252.7l-8.4,16.6h-9.9c-1.2,0-2.4,0.1-3.7,0.3c-1.2,0.2-2.3,0.6-3.2,1.2c-0.9,0.6-1.6,1.5-2.2,2.6
				c-0.6,1.1-0.9,2.6-0.9,4.5v42h-18.4v-42c0-3.4,0.6-6.6,1.8-9.6c1.2-3,3.1-5.7,5.6-7.9c2.5-2.3,5.7-4.1,9.5-5.4
				c3.8-1.3,8.3-2.1,13.5-2.1h1H397.7z"/>
		</g>
		<g>
			<path fill="#FFFFFF" d="M422.4,250.7c9.8,0,16.7,2.2,20.9,6.5c4.1,4.4,6.2,10.7,6.2,19.1v18.2c0,3.8-0.5,7.3-1.5,10.6
				c-1,3.2-2.5,6-4.7,8.4c-2.2,2.4-4.9,4.2-8.4,5.6s-7.6,2-12.6,2c-4.6,0-8.6-0.7-12-2c-3.4-1.3-6.2-3.2-8.4-5.6
				c-2.2-2.4-3.8-5.1-4.9-8.4c-1.1-3.2-1.6-6.7-1.6-10.6v-18.7c0-3.7,0.5-7.2,1.6-10.2c1.1-3.1,2.7-5.7,4.9-7.9
				c2.2-2.2,5-3.9,8.4-5.1C413.7,251.3,417.7,250.7,422.4,250.7z M422.4,305.7c3.3,0,5.5-1.1,6.8-3.2c1.3-2.1,2-4.7,2-7.8v-19.2
				c0-3.2-0.7-5.7-2.2-7.4c-1.5-1.8-3.7-2.7-6.6-2.7c-3.3,0-5.6,1.1-6.9,3.2c-1.3,2.2-1.9,4.7-1.9,7.7v18.4c0,3,0.6,5.6,1.9,7.7
				C416.7,304.7,419,305.7,422.4,305.7z"/>
		</g>
		<g>
			<path fill="#FFFFFF" d="M509.9,294.6c0,3.8-0.5,7.3-1.6,10.6c-1.1,3.2-2.8,6-5,8.4c-2.2,2.4-5.1,4.2-8.5,5.6s-7.4,2-12.1,2
				c-3.3,0-6.2-0.4-8.9-1.1v26.5h-18.3v-89.4c3.3-2.4,7.1-4,11.3-4.9c4.2-0.9,8.5-1.4,12.8-1.4c5.1,0,9.6,0.7,13.4,2
				c3.8,1.3,6.9,3.1,9.4,5.4c2.5,2.3,4.4,4.9,5.6,7.9c1.3,3,1.9,6.1,1.9,9.5V294.6z M491.6,275.7c0-4-1-6.7-3-8.2
				c-2-1.5-4.6-2.3-7.6-2.3c-2.2,0-4.6,0.3-7.2,1v29.3c0,3.3,0.7,5.8,2.1,7.5c1.4,1.7,3.7,2.5,6.8,2.5c3.4,0,5.7-0.9,7-2.8
				c1.2-1.9,1.9-4.6,2-8.1V275.7z"/>
		</g>
		<g>
			<path fill="#FFFFFF" d="M590.2,319.8H567l-23.3-39.9l-5.7,6.8v33.1h-21.6v-92.7H538v34.9l27.8-34.9H588l-31.7,38.1L590.2,319.8z"
				/>
		</g>
		<g>
			<path fill="#FFFFFF" d="M638.8,290.9h-35.7c0,1.7,0,3.6,0.1,5.6c0.1,2,0.4,3.8,1,5.6c0.6,1.7,1.6,3.1,2.9,4.3
				c1.3,1.1,3.2,1.7,5.6,1.7c1.7,0,3.1-0.2,4.1-0.7c1.1-0.5,1.9-1.1,2.6-1.8c0.6-0.7,1.1-1.4,1.5-2.2c0.3-0.8,0.6-1.5,0.9-2.1h16.8
				c-0.4,3-1.2,5.7-2.3,8.2c-1.1,2.4-2.7,4.5-4.8,6.2c-2,1.7-4.6,3-7.7,3.9c-3.1,0.9-6.8,1.3-11.1,1.3c-4.9,0-9-0.9-12.5-2.6
				c-3.5-1.7-6.2-3.9-8.4-6.7c-2.1-2.8-3.7-5.9-4.6-9.5c-1-3.6-1.5-7.3-1.5-11.1V276c0-3.7,0.5-7.2,1.6-10.2c1.1-3.1,2.7-5.8,4.9-8
				c2.2-2.2,5-4,8.4-5.2c3.4-1.2,7.4-1.8,12-1.8c5.1,0,9.4,0.8,12.8,2.4c3.4,1.6,6.1,3.7,8.1,6.3c2,2.6,3.4,5.7,4.1,9.1
				c0.8,3.5,1.2,7.1,1.2,10.9V290.9z M622.5,277.9c0-1.5-0.1-3.2-0.2-4.8c-0.1-1.7-0.5-3.2-1.1-4.6c-0.6-1.4-1.6-2.6-2.9-3.5
				c-1.3-0.9-3.2-1.4-5.6-1.4c-3.4,0-5.9,1-7.4,3.1c-1.5,2.1-2.3,5.2-2.3,9.3v3.4h19.4V277.9z"/>
		</g>
		<g>
			<path fill="#FFFFFF" d="M702,252.7l-22.6,66.1c-1.4,3.8-2.8,7.4-4.1,10.9s-3.1,6.4-5.1,9c-2,2.6-4.5,4.6-7.4,6
				c-2.9,1.5-6.6,2.2-11.1,2.2V332c1.5,0,2.8-0.3,3.9-1c1.1-0.7,2-1.6,2.7-2.8c0.8-1.2,1.4-2.5,2-4c0.6-1.5,1.2-2.9,1.8-4.4
				l-23.1-67.1h19.3l12,44l1.3-3.9l10.9-40.1H702z"/>
		</g>
		<g>
			<path fill="#7B8994" d="M717.1,319.3h-21.6v-16.1h21.6V319.3z"/>
		</g>
		<g>
			<path fill="#7B8994" d="M734.5,244.7c-2.7,0-5-1-6.8-2.9c-1.9-1.9-2.8-4.2-2.8-6.8c0-2.7,0.9-5,2.8-6.9c1.9-1.9,4.1-2.9,6.8-2.9
				c2.7,0,5,1,6.9,2.9c1.9,1.9,2.9,4.2,2.9,6.9c0,2.6-1,4.9-2.9,6.8C739.5,243.8,737.2,244.7,734.5,244.7z M725.5,252.2h18.2v67.1
				h-18.2V252.2z"/>
		</g>
		<g>
			<path fill="#7B8994" d="M777.6,250.2c9.8,0,16.7,2.2,20.9,6.5c4.1,4.4,6.2,10.7,6.2,19.1V294c0,3.8-0.5,7.3-1.5,10.6
				c-1,3.2-2.5,6-4.7,8.4c-2.2,2.4-4.9,4.2-8.4,5.6s-7.6,2-12.6,2c-4.6,0-8.6-0.7-12-2c-3.4-1.3-6.2-3.2-8.4-5.6
				c-2.2-2.4-3.8-5.1-4.9-8.4c-1.1-3.2-1.6-6.7-1.6-10.6v-18.7c0-3.7,0.5-7.2,1.6-10.2c1.1-3.1,2.7-5.7,4.9-7.9
				c2.2-2.2,5-3.9,8.4-5.1C769,250.8,773,250.2,777.6,250.2z M777.6,305.2c3.3,0,5.5-1.1,6.8-3.2c1.3-2.1,2-4.7,2-7.8v-19.2
				c0-3.2-0.7-5.7-2.2-7.4c-1.5-1.8-3.7-2.7-6.6-2.7c-3.3,0-5.6,1.1-6.9,3.2c-1.3,2.2-1.9,4.7-1.9,7.7v18.4c0,3,0.6,5.6,1.9,7.7
				C772,304.2,774.3,305.2,777.6,305.2z"/>
		</g>
	</g>
	<g id="Finished_Logo_2_" display="inline">
		<g>
			<path fill="#FFFFFF" d="M242.2,289c0-7.8,2.2-15.1,6-21.3l5.4,7.1l6.8-16.2l7.5-17.8l-36.5,4.6l4.2,5.6
				c-8.4,10.4-13.4,23.6-13.4,38c0,15.6,5.9,29.9,15.6,40.7l7.1-6.1l8-7C246.2,309.3,242.2,299.6,242.2,289z"/>
			<path fill="#FFFFFF" d="M283.1,228.1c-3.1,0-6.1,0.2-9.1,0.7l0,9.4c0,0.2,0,0.3,0,0.5v6.2v4.2v38.7c0,5.3,4.5,9.6,10,9.6
				s10-4.3,10-9.6v-38.3c17.3,4.8,30.1,20.7,30.1,39.5c0,22.4-18.1,40.7-40.4,40.9l3.2-7.5l-17.4,2.2l-19.2,2.4l22.2,29.4l2.9-6.9
				c2.5,0.3,5.1,0.5,7.8,0.5c33.6,0,61-27.3,61-61C344.1,255.4,316.8,228.1,283.1,228.1z"/>
		</g>
	</g>
	<line display="inline" fill="none" x1="536" y1="227.1" x2="267.9" y2="227.1"/>
</g>
</svg>
